# xmcd
#
# Track frame offsets:
#	150
#	13515
#	29068
#	42885
#	57634
#	71474
#	85358
#	99560
#	111851
#	125463
#	139832
#	154286
#	168524
#	180510
#	193287
#	204438
#	218610
#	229353
#	242628
#	254077
#	267343
#	280631
#
# Disc length: 3892 seconds
#
# Revision: 0
# Processed by: cddbd v1.4PL0 Copyright (c) Steve Scherf et al.
# Submitted via: dBpowerAMP V4.0
#
DISCID=4c0f3216
DTITLE=Sleepy Estes John - Man Who Cried The Blues-1929-4
DYEAR=1998
DGENRE=General Blues
TTITLE0=The Girl I Love She Got Long Curly Hair
TTITLE1=Black Mattie Blues
TTITLE2=Milk Cow Blues
TTITLE3=Street Car Blues
TTITLE4=Express Blues
TTITLE5=Watcha Doin?
TTITLE6=Down South Blues
TTITLE7=Stop That Thing
TTITLE8=Someday Baby Blues
TTITLE9=Drop Down Mama
TTITLE10=Government Money
TTITLE11=Vernita Blues
TTITLE12=Jack And Jill Blues
TTITLE13=Everybody Oughta Make A Change
TTITLE14=Liquor Store Blues
TTITLE15=Brownsville Blues
TTITLE16=Time Is Drawing Near
TTITLE17=Jailhouse Blues
TTITLE18=You Shouldn'T Do That
TTITLE19=Black Gal Swing
TTITLE20=Come Back Home Little Girl
TTITLE21=Little Laura Blues
EXTD=submitted by william hale
EXTT0=
EXTT1=
EXTT2=
EXTT3=
EXTT4=
EXTT5=
EXTT6=
EXTT7=
EXTT8=
EXTT9=
EXTT10=
EXTT11=
EXTT12=
EXTT13=
EXTT14=
EXTT15=
EXTT16=
EXTT17=
EXTT18=
EXTT19=
EXTT20=
EXTT21=
PLAYORDER=
